<svg xmlns="http://www.w3.org/2000/svg" width="522.354" height="65.162" viewBox="0 0 522.354 65.162">
  <g id="그룹_21260" data-name="그룹 21260" transform="translate(-735.583 -217.521)">
    <path id="패스_57621" data-name="패스 57621" d="M51.8-44.245c-2.641-.86-10.317-2.211-13.572-.061v1.167a6.373,6.373,0,0,1,4.36,1.781,1.5,1.5,0,0,1,.368,1.167v15.905a78.253,78.253,0,0,1-8.106-.123l-.491,1.044a9.577,9.577,0,0,0,3.378,3.807c1.29-.983,2.579-1.412,5.22-1.474V-9.057A7.584,7.584,0,0,0,45.9-7.706c1.6,0,7-3.685,6.939-4.79-.123-1.965.061-28.187.123-29.354C53.027-43.324,52.72-43.938,51.8-44.245ZM16.3-35.156c1.719.123,12.1-.184,13.142-.368a2.687,2.687,0,0,0,.983-1.535c0-.921-2.7-3.746-3.439-3.746a40.958,40.958,0,0,1-8.9,1.105,53.343,53.343,0,0,1-8.966-.737l-.491,1.167C9.549-37.981,14.707-35.279,16.3-35.156Zm17.5,27.512C35.833-8.5,37-14.829,35.525-16c-1.719-.8-6.509-1.535-9.641-1.535a33.613,33.613,0,0,0,9.027-11.361.939.939,0,0,0-.43-1.228,62.793,62.793,0,0,0-9.334-1.842A3.3,3.3,0,0,1,23.3-30.8l-14.37.123a25.288,25.288,0,0,1-4.483-.307l-.614,1.167c.553,1.351,3.685,4.237,5.22,4.79,2.7-2.088,6.448-2.579,14.493-2.518C20.3-22.321,6.478-9.732.583-7.215a1.283,1.283,0,0,0,1.228,1.29,8.482,8.482,0,0,0,1.535-.184c5.527-.983,13.756-4.606,20.7-9.948a47.237,47.237,0,0,1,8.29,8.045Zm2.027.8C25.761-6.723,18.76-1.319,18.76,4.761c0,6.694,5.711,10.563,16.4,10.44,9.273-.123,17.011-4.913,17.011-11.668C52.168-2.793,46.764-6.969,35.833-6.846ZM35.71,11.823c-4.053.123-7.246-3.071-7.246-7.983,0-4.422,2.518-7.246,6.817-7.369,3.93-.123,7.185,3.439,7.185,7.983C42.465,9.428,39.824,11.7,35.71,11.823ZM114.376-18.7a7.541,7.541,0,0,1-6.141,3.071c0-12.282,0-25.424.061-26.038.061-1.719-.246-2.272-1.167-2.579-2.825-.921-10.624-2.272-14.063.061v1.167a7.372,7.372,0,0,1,4.851,1.965,1.771,1.771,0,0,1,.368,1.167V13.542c0,.43,2.579,1.658,3.439,1.658,1.719,0,6.632-1.781,6.571-2.4-.061-1.9-.061-5.036-.061-7.185V-12.373c5.158,0,10.5,0,11.238.123.368.061,1.228-1.044,1.228-1.474C120.7-15.321,116.649-18.7,114.376-18.7ZM96.137-4.942c-1.719.43-8.659,1.167-15.6,1.781A26.164,26.164,0,0,0,82.566-7.4v-5.343c5.65-1.781,9.887-6.387,9.887-12.159,0-6.939-4.974-11.668-14.37-11.545-9.027.123-15.414,6.2-15.414,12.835,0,6.141,3.5,10.256,10.194,11.422v9.641l-6.018.307a45.449,45.449,0,0,1-7.308-.246L58.923-1.2c.737,1.535,4.36,4.974,6.141,5.65A27.324,27.324,0,0,1,71.2,2.8c6.694-.86,20.7-3.807,24.564-5.588a1.22,1.22,0,0,0,.8-1.228A1.033,1.033,0,0,0,96.137-4.942ZM77.53-33.068c3.071-.123,5.588,3.93,5.588,9.4,0,5.711-1.965,8.29-5.1,8.413-3.193.123-5.773-3.746-5.773-9.273C72.249-29.752,74.214-32.945,77.53-33.068Zm95.432,38.75c0-3.255,0-46.733.061-47.777.061-1.474-.184-2.088-1.105-2.334-2.334-.737-9.519-1.719-11.791.123V-43.2a5.392,5.392,0,0,1,3.93,1.535,1.751,1.751,0,0,1,.307,1.167v23.213h-6.632l.123-21.125c.061-1.351-.246-1.842-1.105-2.149-2.027-.8-8.782-1.965-11.054-.123v.983a5.229,5.229,0,0,1,3.562,1.781,1.58,1.58,0,0,1,.307,1.105v48.33a5.736,5.736,0,0,0,2.272,1.167c1.474,0,5.957-4.667,5.9-5.957v-20.7h6.632V13.665c0,.43,2.088,1.535,2.825,1.535,1.412,0,5.9-1.781,5.9-2.334C172.962,11.024,172.962,7.831,172.962,5.682ZM147.231-7.46a124.691,124.691,0,0,1-13.94,1.781c-.86.061-1.167-.123-1.167-.307V-27.111c5.773,0,12.651.061,13.08.123.246.061.983-.983.983-1.351,0-1.351-4.176-4.483-6.325-4.483a8.983,8.983,0,0,1-3.255,2.334c-.676.061-13.817.123-16.212-.061v1.412a13.25,13.25,0,0,0,2.641,1.658V-3.039c0,.43,4.667,2.4,5.9,2.825a4.587,4.587,0,0,0,1.228.184c3.992-.184,13.756-3.132,16.7-5.281A1.391,1.391,0,0,0,147.6-6.6,1.031,1.031,0,0,0,147.231-7.46Zm35.741,27.143c6.878-1.842,13.019-8.045,12.036-16.274C194.517-.705,192-3.53,188.56-3.96c-3.193-.368-5.65,1.412-5.65,4.114,0,2.886,3.009,4.667,6.2,4.053a3.745,3.745,0,0,1,.737,2.149c.184,3.992-3.869,8.413-8.9,9.641Z" transform="translate(735 263)" fill="#008ca2"/>
    <path id="패스_57620" data-name="패스 57620" d="M17.66-34.665c3.869-2.456,6.509-2.825,20.634-2.825-.184,3.869-.921,12.282-1.474,14.923a1.225,1.225,0,0,0,.8.246,3.651,3.651,0,0,0,1.412-.43c4.667-2.334,9.334-8.229,10.624-16.4a.924.924,0,0,0-.553-1.105A63.014,63.014,0,0,0,39.215-42.1a3.407,3.407,0,0,1-1.842,1.29l-20.02.123a23.2,23.2,0,0,1-4.913-.43l-.553,1.228A16.91,16.91,0,0,0,17.66-34.665ZM51.252-23.734A17.971,17.971,0,0,1,46.277-20.6c-.676.123-7.738.184-15.537.246C15.7-20.234,5.255-20.049,2-21.032l-.676,1.412c.8,1.658,5.158,5.22,7.062,5.773,4.36-1.9,9.519-2.7,17.809-2.948V-5.863l-8.6.123a42.976,42.976,0,0,1-5.281-.307l-.553,1.167A15.159,15.159,0,0,0,17.353.093c3.93-2.272,7.308-2.7,21.678-2.7V13.911c0,.368,2.456,1.29,3.316,1.29,1.6,0,6.694-1.29,6.694-1.781,0-1.412.061-17.563.123-18.055.061-.614-.061-.983-.553-1.167a67.236,67.236,0,0,0-8.9-1.29,3.744,3.744,0,0,1-1.781,1.105l-3.992.061A36.238,36.238,0,0,0,36.083-10.9v-6.018c10.133,0,20.818.123,23.582.491.43.061,1.351-1.29,1.351-1.719C61.016-19.8,54.076-23.734,51.252-23.734Zm50.786-17.379a1.673,1.673,0,0,1,.43,1.228V-.152A6.794,6.794,0,0,0,105.416,1.2c1.658,0,7-4.114,6.939-5.343-.061-1.842.061-36.478.123-37.522.061-1.719-.246-2.272-1.167-2.579-2.763-.921-10.563-2.272-14,.061v1.167A6.881,6.881,0,0,1,102.038-41.113ZM94.423-12.8c.184,0,.553-.676.553-.983A4.322,4.322,0,0,0,93.563-16L94.73-33.989c.061-.737-.123-1.167-.676-1.412a57.6,57.6,0,0,0-8.475-1.167,3.289,3.289,0,0,1-1.842,1.228l-9.457.123c-2.7-.307-11.115-1.105-13.142.307v.921c1.474.123,3.439,1.474,3.5,2.641l.737,20.88a7.1,7.1,0,0,0,2.7,1.167c.983,0,4.36-1.842,5.957-3.255Zm-9.58-3.255-10.01.123L74.588-31.9l10.256-.123ZM107.258,6.48c-.8,1.167-3.193,3.193-4.053,3.316-.676.061-12.958.246-14.124.184-1.105-.061-1.351-.246-1.351-.43l.061-13.51c0-1.044-.307-1.535-1.167-1.781-2.211-.676-10.01-1.412-12.4.43v1.044a4.536,4.536,0,0,1,3.255,1.228,1.608,1.608,0,0,1,.307,1.044V11.331c0,.43,6.08,1.781,8.106,2.149a12.4,12.4,0,0,0,2.027.184l27.2-.307c.368,0,1.228-1.29,1.228-1.781C116.347,9.8,110.451,6.48,107.258,6.48ZM146.99-36.077c3.562-1.719,7.615-2.272,16.888-2.272,8.475-.061,16.949.061,18.177.307.184.061,1.044-1.044,1.044-1.412,0-1.6-5.527-4.851-7.922-4.851a12.618,12.618,0,0,1-3.623,2.456c-.491.061-4.3.123-10.194.123-11.3,0-17.011-.123-19.467-.491l-.491,1.167C142.016-39.639,145.455-36.569,146.99-36.077Zm-5.22,11.361a14.942,14.942,0,0,0,5.158,4.606c3.746-1.474,7.369-1.9,16.826-1.9,7.922-.061,16.7.061,17.932.307.246.061,1.044-.921,1.044-1.228,0-1.412-4.544-4.3-6.755-4.3a5.469,5.469,0,0,1-2.579,1.658c-.123,0-.614.061-1.412.061a20.089,20.089,0,0,0,2.272-3.071l1.6-5.711c.246-.737.061-1.29-.614-1.535-1.842-.614-9.027-1.535-10.747-.307v.676c.921.061,1.9.8,1.9,1.474l-.43,8.6h-5.343c-9.15,0-16.151-.123-18.423-.43Zm15.046-1.719c.676,0,3.009-1.044,3.009-1.474a15.718,15.718,0,0,0-1.535-5.711c-.43-.676-6.018-2.456-7.124-2.641l-1.351.614a18,18,0,0,1,.86,3.93,33.927,33.927,0,0,1,.123,3.5C150.8-27.726,155.588-26.436,156.816-26.436Zm26.1,6.755a17.971,17.971,0,0,1-4.974,3.132c-.676.123-7.738.184-15.537.246-15.046.123-25.485.307-28.74-.676l-.676,1.412c.8,1.658,5.158,5.22,7.062,5.773,4.36-1.9,9.519-2.7,17.809-2.948v8.536h-1.535c-2.579-.246-10.747-.921-12.466.614v.8a2.754,2.754,0,0,1,2.518,2.211l.676,15.721A10.054,10.054,0,0,0,150,16.244c.983,0,4.3-1.474,5.957-2.641l25.547-.246c.184,0,.553-.614.553-.921,0-.553-1.29-1.965-2.149-2.579l1.105-12.712c.061-.737-.123-1.228-.676-1.412a65.387,65.387,0,0,0-9.089-1.167,2.8,2.8,0,0,1-1.781,1.044l-3.869.061a22.455,22.455,0,0,0,2.149-4.053v-4.483c10.133,0,20.818.123,23.582.491.43.061,1.351-1.29,1.351-1.719C192.68-15.751,185.74-19.681,182.915-19.681ZM170.449,10.042l-13.633.123L156.632-.889l13.817-.184Zm51.339-20.265c10.563-.123,19.16-6.264,19.16-14.554,0-7.922-6.264-13.387-17.932-13.265-11.422.123-19.221,6.878-19.221,14.861C203.795-15.014,210.12-10.1,221.788-10.224Zm.86-3.439c-4.974.123-8.782-4.3-8.782-10.685,0-6.018,3.132-10.133,8.229-10.256,5.036-.123,8.782,4.79,8.782,11.054C230.877-17.1,227.622-13.785,222.648-13.663ZM199.68,8.814c5.281-2.272,11.729-3.009,23.4-3.071,11.238-.061,24.748.061,27.88.491.43.061,1.351-1.29,1.351-1.719,0-1.658-6.939-5.588-9.764-5.588a17.971,17.971,0,0,1-4.974,3.132c-.676.123-7.738.184-15.537.246-15.046.123-25.485.307-28.74-.676l-.676,1.412C193.417,4.7,197.777,8.261,199.68,8.814Zm67.551-41.452c3.5-1.965,7.308-2.334,22.783-2.272v8.9l-26.1.061v14.493c0,.43,6.878,1.6,8.6,1.842a14.036,14.036,0,0,0,1.535.123l28-.246c.368,0,1.044-1.105,1.044-1.474,0-1.474-5.466-4.237-7.861-4.237-.737.921-2.518,2.334-3.378,2.4-.921.061-15.353.246-16.519.184-.921-.061-1.228-.184-1.228-.43v-9.4l24.81-.061c.553,0,.8-.184.86-.737l.737-13.387c0-.8-.123-1.167-.737-1.29a63.661,63.661,0,0,0-9.027-1.105,2.659,2.659,0,0,1-1.535.983l-21.248.184a49.035,49.035,0,0,1-5.527-.307l-.43.983A15.7,15.7,0,0,0,267.232-32.638ZM302.174-1.073A17.971,17.971,0,0,1,297.2,2.058c-.553.123-5.9.184-12.4.246a13.717,13.717,0,0,0,2.211-3.316c0-.921.123-4.544.246-5.466.123-.737-8.229-1.658-10.992-1.105l-.184.921a1.862,1.862,0,0,1,.983,1.474c.061.43.184,5.466.184,7.553-12.651.061-21.371.123-24.318-.737l-.676,1.412c.8,1.658,5.158,5.22,7.062,5.773,5.281-2.272,11.729-3.009,23.4-3.071,11.238-.061,24.748.061,27.88.491.43.061,1.351-1.29,1.351-1.719C311.939,2.857,305-1.073,302.174-1.073Z" transform="translate(945.999 263)" fill="#333"/>
  </g>
</svg>
